<?xml version="1.0" standalone="no"?>
<!DOCTYPE svg PUBLIC "-//W3C//DTD SVG 20010904//EN"
 "http://www.w3.org/TR/2001/REC-SVG-20010904/DTD/svg10.dtd">
<svg version="1.0" xmlns="http://www.w3.org/2000/svg"
 width="396.000000pt" height="396.000000pt" viewBox="0 0 396.000000 396.000000"
 preserveAspectRatio="xMidYMid meet">

<g transform="translate(0.000000,396.000000) scale(0.100000,-0.100000)"
fill="#000000" stroke="none">
<path d="M1930 3584 c-325 -40 -537 -114 -775 -272 -361 -239 -606 -605 -696
-1042 -21 -100 -24 -142 -24 -320 1 -229 15 -323 80 -516 197 -591 729 -1022
1353 -1095 135 -16 391 -6 517 21 614 130 1094 586 1251 1189 119 458 34 931
-240 1336 -86 128 -293 333 -423 419 -273 181 -559 272 -878 281 -71 2 -146 1
-165 -1z m425 -54 c149 -30 257 -65 390 -130 193 -93 325 -189 471 -343 212
-223 348 -483 415 -798 19 -88 23 -134 23 -304 -1 -169 -4 -216 -23 -305 -92
-429 -334 -790 -688 -1025 -478 -318 -1097 -355 -1609 -95 -378 192 -667 528
-797 929 -59 181 -72 267 -72 496 0 233 13 321 75 506 160 477 527 848 1000
1011 103 35 239 66 340 78 114 13 360 3 475 -20z"/>
<path d="M2114 3426 c-39 -18 -72 -59 -80 -102 -8 -45 0 -76 32 -113 71 -85
214 -46 238 65 9 41 -18 108 -54 134 -37 26 -98 34 -136 16z m114 -68 c52 -49
14 -138 -60 -138 -50 0 -78 27 -78 78 0 82 77 116 138 60z"/>
<path d="M2447 3248 c-38 -104 -43 -124 -31 -131 25 -14 42 0 55 42 14 46 16
47 66 26 22 -9 40 -12 46 -6 17 17 2 44 -32 56 -40 13 -47 25 -32 54 11 19 11
19 62 0 28 -11 53 -19 54 -17 1 2 5 12 9 24 6 19 -2 24 -66 48 -40 14 -76 26
-79 26 -4 0 -27 -55 -52 -122z"/>
<path d="M1508 3343 c-10 -3 -18 -8 -18 -12 0 -10 79 -243 84 -249 8 -8 166
52 166 63 0 5 -4 16 -9 24 -7 11 -16 11 -57 -3 -26 -9 -52 -16 -58 -16 -6 0
-24 39 -41 88 -32 96 -42 111 -67 105z"/>
<path d="M1248 3206 c-37 -23 -70 -45 -74 -48 -6 -7 119 -212 136 -223 4 -3
42 18 85 45 68 45 75 53 64 68 -7 9 -14 19 -15 20 -1 2 -27 -12 -57 -31 -54
-35 -56 -35 -72 -17 -21 23 -15 33 35 61 45 25 46 27 27 54 -13 17 -16 17 -60
-14 l-46 -31 -15 22 c-19 26 -17 29 39 65 47 29 54 43 32 61 -9 8 -30 -1 -79
-32z"/>
<path d="M2925 2995 c-66 -30 -124 -56 -130 -59 -6 -2 -2 -12 7 -22 15 -15 21
-16 44 -5 25 11 30 10 62 -22 29 -30 33 -37 23 -55 -10 -18 -8 -25 10 -43 20
-20 22 -20 31 -5 11 20 88 246 88 258 0 13 -10 10 -135 -47z m48 -55 c-7 -28
-18 -33 -34 -14 -10 13 -10 17 2 25 24 15 37 10 32 -11z"/>
<path d="M1950 3033 c-154 -13 -350 -81 -481 -168 -91 -61 -231 -198 -289
-284 -90 -135 -158 -304 -181 -454 -18 -112 -6 -364 21 -462 112 -411 415
-699 825 -786 77 -17 293 -17 370 0 430 91 749 409 842 841 22 102 24 342 5
435 -19 89 -61 212 -95 280 -122 246 -337 445 -577 534 -127 47 -316 75 -440
64z m330 -103 c341 -100 603 -373 694 -721 110 -424 -60 -877 -416 -1112 -150
-99 -272 -142 -441 -157 -477 -40 -900 267 -1029 748 -15 55 -22 120 -25 227
-5 136 -3 161 21 265 61 271 234 512 467 651 74 44 232 104 313 119 91 16 331
5 416 -20z"/>
<path d="M1873 2850 c-84 -18 -86 -20 -79 -118 3 -48 8 -388 12 -757 4 -369 9
-721 13 -784 l6 -115 55 -12 c80 -19 261 -18 332 2 l58 17 0 482 c0 265 -3
658 -7 874 l-6 393 -26 10 c-34 14 -304 20 -358 8z m258 -117 c5 -5 12 -336
16 -784 l6 -775 -40 -12 c-50 -15 -110 -15 -150 -1 l-30 10 -7 587 c-3 323 -7
675 -8 782 l-3 195 35 7 c46 9 169 3 181 -9z"/>
<path d="M1586 2730 c-132 -86 -126 -79 -126 -160 0 -38 3 -70 6 -70 3 0 28
19 55 42 27 22 51 39 54 36 7 -7 29 -1278 22 -1285 -10 -9 -87 59 -149 132
-74 87 -116 167 -124 239 l-7 56 -58 0 c-69 0 -68 1 -43 -109 17 -79 85 -195
163 -282 72 -80 319 -245 338 -225 2 2 -1 300 -6 662 -6 363 -11 741 -11 842
0 139 -3 182 -12 181 -7 0 -53 -27 -102 -59z"/>
<path d="M2355 1949 c4 -464 8 -845 10 -847 2 -2 25 7 51 20 l49 23 3 438 2
437 171 0 171 0 -5 -132 c-3 -109 -9 -146 -30 -206 -32 -88 -73 -163 -140
-249 l-49 -65 33 -34 c18 -19 38 -34 44 -34 17 0 108 116 154 195 22 39 53
111 70 160 79 240 58 478 -66 715 -54 105 -128 197 -214 270 -66 55 -198 136
-240 147 l-22 6 8 -844z m259 511 c66 -72 128 -172 156 -254 11 -33 20 -61 20
-63 0 -2 -71 -2 -157 -1 l-158 3 -3 205 c-1 112 0 211 3 218 7 18 62 -26 139
-108z"/>
<path d="M1002 3018 c-17 -17 -16 -23 24 -85 19 -30 34 -57 32 -59 -2 -2 -34
6 -70 18 -55 18 -69 19 -82 9 -22 -18 -20 -30 7 -36 21 -6 73 -83 62 -93 -3
-3 -35 7 -73 22 l-67 26 -18 -22 c-14 -17 -15 -23 -5 -29 18 -10 248 -89 259
-89 5 0 -7 32 -27 71 -19 39 -33 73 -31 75 2 2 34 -5 71 -17 38 -11 70 -19 72
-17 5 6 -126 238 -135 238 -4 0 -12 -5 -19 -12z"/>
<path d="M3188 2804 c-33 -17 -43 -49 -33 -109 5 -37 3 -46 -11 -52 -24 -9
-47 9 -56 45 -6 22 -15 32 -28 32 -39 0 -16 -91 32 -124 31 -22 60 -20 93 6
25 20 27 25 23 77 -6 68 -2 81 24 81 14 0 24 -12 35 -40 16 -41 39 -52 49 -25
13 34 -36 106 -81 118 -11 3 -32 -1 -47 -9z"/>
<path d="M682 2543 c-18 -43 -32 -82 -32 -88 0 -9 216 -105 236 -105 7 0 37
65 69 152 4 11 -1 20 -15 28 -19 10 -23 7 -47 -49 -27 -64 -32 -67 -63 -51
-18 9 -18 12 3 60 18 44 19 52 7 60 -25 16 -30 12 -52 -37 -26 -61 -23 -58
-53 -45 l-25 12 25 57 c24 54 25 58 9 70 -10 7 -21 13 -24 13 -4 0 -21 -35
-38 -77z"/>
<path d="M3290 2504 c-58 -25 -109 -49 -113 -53 -10 -10 2 -41 16 -41 10 0
227 88 235 96 8 6 -10 44 -21 44 -7 -1 -59 -21 -117 -46z"/>
<path d="M3230 2284 c0 -19 7 -26 29 -30 24 -5 31 -13 40 -48 10 -38 9 -42
-14 -61 -20 -17 -23 -26 -17 -48 l7 -27 110 75 c125 87 147 105 125 105 -8 0
-75 13 -147 29 l-133 29 0 -24z m160 -64 c0 -12 -35 -31 -44 -23 -15 15 -4 33
19 33 14 0 25 -4 25 -10z"/>
<path d="M595 2236 c-3 -12 -9 -47 -13 -78 -8 -52 -7 -57 12 -62 25 -6 36 9
36 51 0 17 4 34 10 38 5 3 39 1 75 -6 80 -14 99 -36 67 -79 -15 -20 -18 -30
-9 -39 19 -19 36 -12 57 22 25 41 25 78 0 110 -25 31 -37 35 -146 51 -82 13
-85 12 -89 -8z"/>
<path d="M3369 1760 c-63 -15 -122 -29 -129 -32 -12 -4 189 -150 226 -165 6
-2 14 5 17 17 4 15 -2 25 -19 37 -21 13 -24 21 -19 47 12 59 16 66 40 66 22 0
35 17 35 46 0 18 -14 17 -151 -16z m41 -64 c0 -8 -4 -18 -10 -21 -13 -8 -52
14 -45 26 10 15 55 11 55 -5z"/>
<path d="M813 1742 c-10 -6 -10 -17 -3 -42 6 -19 10 -40 10 -46 0 -10 -109
-44 -140 -44 -19 0 -33 45 -21 68 9 18 8 23 -9 32 -11 6 -25 8 -30 5 -18 -11
-22 -71 -6 -108 23 -57 51 -63 168 -36 54 12 98 26 98 31 0 5 -7 40 -16 79
-15 66 -25 78 -51 61z"/>
<path d="M3170 1491 c-5 -11 -7 -22 -2 -25 30 -18 235 -95 243 -91 5 4 9 14 9
25 0 14 -27 29 -110 64 -60 25 -114 46 -119 46 -6 0 -15 -9 -21 -19z"/>
<path d="M808 1414 c-60 -30 -108 -56 -108 -59 0 -3 18 -41 40 -85 37 -73 42
-79 60 -70 11 6 20 13 20 15 0 3 -12 29 -27 60 -27 54 -27 55 -8 69 24 18 36
9 60 -44 20 -44 23 -46 48 -27 15 11 15 15 -5 54 -23 45 -19 73 10 73 13 0 26
-16 42 -50 24 -51 33 -57 60 -40 12 7 8 21 -24 84 -22 42 -44 76 -50 75 -6 0
-59 -25 -118 -55z"/>
<path d="M3097 1329 c-47 -47 -56 -82 -30 -117 26 -36 68 -40 119 -11 23 12
49 19 58 16 26 -10 19 -43 -14 -69 -21 -17 -29 -29 -24 -41 11 -31 51 -12 86
40 25 39 23 79 -7 108 -31 32 -56 31 -116 -2 -43 -24 -51 -26 -59 -13 -15 23
-12 30 20 60 26 24 28 29 16 46 -13 17 -16 16 -49 -17z"/>
<path d="M990 1108 c-39 -83 -54 -124 -45 -126 7 -2 37 6 66 18 30 11 59 20
66 20 7 0 0 -25 -18 -66 -17 -36 -28 -68 -26 -71 4 -4 194 74 240 99 21 11 21
11 -2 29 -22 18 -24 18 -64 -5 -23 -13 -52 -27 -64 -31 -22 -6 -22 -5 7 61 29
64 30 68 13 86 -17 19 -17 18 -30 -5 -11 -22 -89 -64 -100 -54 -2 3 11 34 28
70 27 55 31 68 20 81 -8 9 -18 16 -23 16 -5 0 -36 -55 -68 -122z"/>
<path d="M2883 1073 c3 -5 26 -64 52 -133 25 -68 48 -126 50 -129 3 -2 11 2
20 9 11 9 14 22 10 44 -5 25 -1 36 23 59 26 25 32 27 55 16 23 -10 30 -9 47 6
11 10 17 22 13 26 -10 9 -253 109 -265 109 -5 0 -7 -3 -5 -7z m121 -96 c17
-12 17 -14 1 -27 -14 -12 -18 -12 -26 1 -21 34 -7 49 25 26z"/>
<path d="M1311 832 c-33 -60 -61 -113 -61 -118 0 -9 139 -94 153 -94 4 0 11 9
17 20 9 17 4 23 -45 51 -55 31 -62 42 -46 69 8 12 17 11 59 -9 81 -38 103 -1
27 43 -49 29 -51 32 -31 59 13 17 17 16 67 -14 50 -29 54 -30 66 -13 7 10 13
20 13 23 0 5 -117 73 -151 89 -4 2 -34 -46 -68 -106z"/>
<path d="M2515 834 c-33 -14 -64 -30 -69 -34 -5 -5 11 -58 39 -124 37 -90 52
-116 67 -116 27 0 32 23 13 60 -21 41 -15 55 29 70 24 8 36 18 36 30 0 29 -18
34 -62 14 -34 -15 -41 -16 -49 -3 -18 29 -9 45 42 66 46 20 49 24 39 42 -13
26 -12 26 -85 -5z"/>
<path d="M1634 799 c-6 -11 -74 -243 -71 -245 6 -6 147 -44 161 -44 10 0 16 8
16 23 0 21 -8 26 -55 37 -30 7 -55 17 -55 22 0 5 11 49 25 98 14 49 25 93 25
98 0 13 -39 22 -46 11z"/>
<path d="M2146 729 c-105 -82 -52 -249 79 -249 63 0 125 58 132 124 6 53 -22
108 -67 131 -43 22 -112 19 -144 -6z m134 -54 c34 -37 33 -90 -4 -121 -33 -29
-65 -30 -99 -4 -33 27 -43 70 -23 108 18 34 28 40 72 41 20 1 38 -7 54 -24z"/>
<path d="M2930 3398 c0 -3 26 -22 58 -43 31 -21 86 -61 122 -89 36 -27 57 -41
47 -29 -25 29 -227 172 -227 161z"/>
<path d="M1019 3283 c-13 -16 -12 -17 4 -4 9 7 17 15 17 17 0 8 -8 3 -21 -13z"/>
<path d="M969 3243 l-24 -28 28 24 c25 23 32 31 24 31 -2 0 -14 -12 -28 -27z"/>
<path d="M860 3143 l-65 -68 68 65 c37 35 67 66 67 67 0 8 -10 -2 -70 -64z"/>
<path d="M3240 3146 c36 -36 66 -66 68 -66 16 0 -82 106 -113 122 -11 6 9 -19
45 -56z"/>
<path d="M3381 2989 c35 -47 66 -84 68 -83 5 4 -95 138 -116 155 -9 8 12 -25
48 -72z"/>
<path d="M764 3038 l-19 -23 23 19 c21 18 27 26 19 26 -2 0 -12 -10 -23 -22z"/>
<path d="M719 2983 c-13 -16 -12 -17 4 -4 9 7 17 15 17 17 0 8 -8 3 -21 -13z"/>
<path d="M689 2943 c-13 -16 -12 -17 4 -4 9 7 17 15 17 17 0 8 -8 3 -21 -13z"/>
<path d="M3479 2855 c5 -11 17 -29 26 -40 l16 -20 -10 20 c-5 11 -17 29 -26
40 l-16 20 10 -20z"/>
<path d="M590 2790 c-6 -11 -8 -20 -6 -20 3 0 10 9 16 20 6 11 8 20 6 20 -3 0
-10 -9 -16 -20z"/>
<path d="M425 2390 c-4 -17 -5 -34 -2 -36 2 -3 7 10 11 27 8 42 0 50 -9 9z"/>
<path d="M411 2324 c0 -11 3 -14 6 -6 3 7 2 16 -1 19 -3 4 -6 -2 -5 -13z"/>
<path d="M402 2280 c0 -14 2 -19 5 -12 2 6 2 18 0 25 -3 6 -5 1 -5 -13z"/>
<path d="M392 2225 c0 -16 2 -22 5 -12 2 9 2 23 0 30 -3 6 -5 -1 -5 -18z"/>
<path d="M383 2155 c0 -22 2 -30 4 -17 2 12 2 30 0 40 -3 9 -5 -1 -4 -23z"/>
<path d="M374 1960 c0 -80 2 -112 3 -72 2 39 2 105 0 145 -1 39 -3 7 -3 -73z"/>
<path d="M383 1760 c0 -25 2 -35 4 -22 2 12 2 32 0 45 -2 12 -4 2 -4 -23z"/>
<path d="M392 1685 c0 -16 2 -22 5 -12 2 9 2 23 0 30 -3 6 -5 -1 -5 -18z"/>
<path d="M402 1630 c0 -14 2 -19 5 -12 2 6 2 18 0 25 -3 6 -5 1 -5 -13z"/>
<path d="M411 1584 c0 -11 3 -14 6 -6 3 7 2 16 -1 19 -3 4 -6 -2 -5 -13z"/>
<path d="M422 1545 c0 -11 3 -29 8 -40 11 -25 11 1 0 35 -6 20 -8 21 -8 5z"/>
<path d="M441 1474 c-1 -15 30 -106 35 -101 2 2 -5 28 -15 58 -11 30 -20 49
-20 43z"/>
<path d="M480 1355 c0 -5 5 -17 10 -25 5 -8 10 -10 10 -5 0 6 -5 17 -10 25 -5
8 -10 11 -10 5z"/>
<path d="M501 1305 c0 -5 6 -21 14 -35 8 -14 14 -20 14 -15 0 6 -6 21 -14 35
-8 14 -14 21 -14 15z"/>
<path d="M585 1130 c9 -16 18 -30 21 -30 2 0 -2 14 -11 30 -9 17 -18 30 -21
30 -2 0 2 -13 11 -30z"/>
<path d="M625 1065 c39 -65 128 -184 158 -211 23 -21 20 -16 -10 18 -22 27
-64 83 -93 125 -55 81 -87 120 -55 68z"/>
<path d="M3472 1050 c-18 -29 -15 -38 4 -12 9 13 14 25 12 27 -2 2 -9 -5 -16
-15z"/>
<path d="M3427 983 c-11 -13 -17 -26 -14 -29 2 -3 12 7 21 22 23 33 17 39 -7
7z"/>
<path d="M3385 930 c-3 -5 -1 -10 4 -10 6 0 11 5 11 10 0 6 -2 10 -4 10 -3 0
-8 -4 -11 -10z"/>
<path d="M3358 893 c-19 -23 -31 -43 -24 -43 2 0 14 14 26 30 23 33 22 40 -2
13z"/>
<path d="M3240 763 c-56 -56 -58 -61 -18 -28 39 32 96 95 86 95 -2 0 -33 -30
-68 -67z"/>
<path d="M860 765 c30 -30 57 -55 59 -55 3 0 -19 25 -49 55 -30 30 -57 55 -59
55 -3 0 19 -25 49 -55z"/>
<path d="M930 707 c0 -2 15 -16 33 -33 l32 -29 -29 33 c-28 30 -36 37 -36 29z"/>
<path d="M3119 654 l-24 -27 28 18 c15 9 27 21 27 26 0 14 -5 11 -31 -17z"/>
<path d="M1007 639 c14 -17 103 -83 103 -76 0 3 -26 24 -57 48 -32 23 -53 36
-46 28z"/>
<path d="M3075 620 c-3 -5 -1 -10 4 -10 6 0 11 5 11 10 0 6 -2 10 -4 10 -3 0
-8 -4 -11 -10z"/>
<path d="M3005 570 c-3 -5 -1 -10 4 -10 6 0 11 5 11 10 0 6 -2 10 -4 10 -3 0
-8 -4 -11 -10z"/>
<path d="M2950 535 c-19 -14 -30 -25 -25 -25 6 0 24 11 40 25 39 31 30 31 -15
0z"/>
<path d="M1150 536 c0 -3 9 -10 20 -16 11 -6 20 -8 20 -6 0 3 -9 10 -20 16
-11 6 -20 8 -20 6z"/>
<path d="M1200 506 c0 -3 14 -12 30 -21 17 -9 30 -13 30 -11 0 3 -13 12 -30
21 -16 9 -30 13 -30 11z"/>
<path d="M2790 445 c-14 -8 -20 -14 -14 -15 5 0 19 7 30 15 24 18 16 19 -16 0z"/>
<path d="M1370 415 c14 -8 30 -14 35 -14 6 0 -1 6 -15 14 -14 8 -29 14 -35 14
-5 0 1 -6 15 -14z"/>
<path d="M2690 400 c-8 -5 -10 -10 -5 -10 6 0 17 5 25 10 8 5 11 10 5 10 -5 0
-17 -5 -25 -10z"/>
<path d="M2635 380 c-13 -6 -15 -9 -5 -9 8 0 22 4 30 9 18 12 2 12 -25 0z"/>
<path d="M1598 333 c7 -3 16 -2 19 1 4 3 -2 6 -13 5 -11 0 -14 -3 -6 -6z"/>
<path d="M2508 333 c7 -3 16 -2 19 1 4 3 -2 6 -13 5 -11 0 -14 -3 -6 -6z"/>
<path d="M1638 323 c7 -3 16 -2 19 1 4 3 -2 6 -13 5 -11 0 -14 -3 -6 -6z"/>
<path d="M2468 323 c7 -3 16 -2 19 1 4 3 -2 6 -13 5 -11 0 -14 -3 -6 -6z"/>
<path d="M1678 313 c7 -3 16 -2 19 1 4 3 -2 6 -13 5 -11 0 -14 -3 -6 -6z"/>
<path d="M2428 313 c7 -3 16 -2 19 1 4 3 -2 6 -13 5 -11 0 -14 -3 -6 -6z"/>
<path d="M2378 303 c7 -3 16 -2 19 1 4 3 -2 6 -13 5 -11 0 -14 -3 -6 -6z"/>
<path d="M1768 293 c6 -2 18 -2 25 0 6 3 1 5 -13 5 -14 0 -19 -2 -12 -5z"/>
<path d="M2318 293 c6 -2 18 -2 25 0 6 3 1 5 -13 5 -14 0 -19 -2 -12 -5z"/>
<path d="M1838 283 c12 -2 30 -2 40 0 9 3 -1 5 -23 4 -22 0 -30 -2 -17 -4z"/>
<path d="M2238 283 c12 -2 30 -2 40 0 9 3 -1 5 -23 4 -22 0 -30 -2 -17 -4z"/>
<path d="M1988 273 c39 -2 105 -2 145 0 39 1 7 3 -73 3 -80 0 -112 -2 -72 -3z"/>
</g>
</svg>
